<svg width="2280" height="788" viewBox="0 0 2280 788" fill="none" xmlns="http://www.w3.org/2000/svg">
<path fill-rule="evenodd" clip-rule="evenodd" d="M0 788.923L454.16 0.501986L456.752 2.00199L2.59217 790.423L0 788.923Z" fill="#01C198"/>
<path fill-rule="evenodd" clip-rule="evenodd" d="M8.97954 788.923L457.956 9.5L460.548 11L11.5717 790.423L8.97954 788.923Z" fill="#01C198"/>
<path fill-rule="evenodd" clip-rule="evenodd" d="M2280 788.921L1825.84 0.500033L1823.25 2.00003L2277.41 790.421L2280 788.921Z" fill="#01C198"/>
<path fill-rule="evenodd" clip-rule="evenodd" d="M2271.02 788.921L1822.04 9.49805L1819.45 10.998L2268.43 790.421L2271.02 788.921Z" fill="#01C198"/>
<path fill-rule="evenodd" clip-rule="evenodd" d="M457.954 12.5H1822.05V9.5H457.954V12.5Z" fill="#01C198"/>
<path fill-rule="evenodd" clip-rule="evenodd" d="M454.163 3.5H1825.84V0.5L454.163 0.5V3.5Z" fill="#01C198"/>
<path d="M936.367 324.856H960.121C968.635 324.856 975.319 322.339 980.172 317.304C985.025 312.269 987.451 305.485 987.451 296.952C987.451 291.576 986.344 286.84 984.131 282.744C981.917 278.563 978.809 275.277 974.808 272.888C970.806 270.499 966.038 269.304 960.504 269.304H925.384V363H919.254V263.16H960.504C967.23 263.16 973.062 264.611 978.001 267.512C982.939 270.413 986.77 274.424 989.494 279.544C992.219 284.579 993.581 290.381 993.581 296.952C993.581 307.448 990.601 315.768 984.641 321.912C978.682 327.971 970.508 331 960.121 331H942.497V363H936.367V324.856ZM935.984 276.6H955.268C961.313 276.6 966.336 278.264 970.338 281.592C974.425 284.92 976.468 290.083 976.468 297.08C976.468 301.688 975.531 305.528 973.658 308.6C971.785 311.587 969.231 313.848 965.996 315.384C962.846 316.835 959.312 317.56 955.396 317.56H935.984V276.6ZM955.396 311.416C959.568 311.416 963.101 310.264 965.996 307.96C968.891 305.571 970.338 301.944 970.338 297.08C970.338 292.131 968.891 288.504 965.996 286.2C963.101 283.896 959.525 282.744 955.268 282.744H942.114V311.416H955.396Z" fill="#01C198"/>
<path d="M855.423 318.072C847.846 315.341 842.099 311.843 838.182 307.576C834.351 303.309 832.435 297.464 832.435 290.04C832.435 284.664 833.84 279.757 836.65 275.32C839.459 270.797 843.503 267.213 848.782 264.568C854.061 261.837 860.404 260.472 867.811 260.472C885.945 260.472 897.865 267.085 903.569 280.312L898.716 283.768C895.311 276.941 891.011 272.376 885.818 270.072C880.709 267.768 874.707 266.616 867.811 266.616C861.766 266.616 856.53 267.683 852.102 269.816C847.76 271.864 844.397 274.68 842.013 278.264C839.715 281.763 838.565 285.688 838.565 290.04C838.565 296.013 840.183 300.664 843.418 303.992C846.654 307.32 851.336 310.093 857.466 312.312L871.897 317.432C878.368 319.736 882.753 322.424 885.051 325.496C887.35 328.483 888.5 331.896 888.5 335.736C888.5 340.344 886.924 344.184 883.774 347.256C880.624 350.328 875.388 351.864 868.066 351.864C862.702 351.864 857.551 350.2 852.613 346.872C847.675 343.459 843.589 338.211 840.353 331.128L845.589 327.544C847.803 333.261 850.996 337.741 855.167 340.984C859.339 344.141 863.639 345.72 868.066 345.72C873.004 345.72 876.623 344.824 878.921 343.032C881.22 341.24 882.37 338.808 882.37 335.736C882.37 333.005 881.433 330.659 879.56 328.696C877.687 326.648 874.452 324.813 869.854 323.192L855.423 318.072ZM863.724 304.12C858.19 302.243 854.316 299.981 852.102 297.336C849.889 294.691 848.782 291.832 848.782 288.76C848.782 286.115 849.378 283.64 850.57 281.336C851.847 279.032 853.933 277.155 856.828 275.704C859.808 274.253 863.766 273.528 868.705 273.528C873.728 273.528 878.24 274.808 882.242 277.368C886.243 279.928 889.436 283.725 891.82 288.76L886.712 292.472C885.179 288.376 882.795 285.219 879.56 283C876.325 280.781 872.706 279.672 868.705 279.672C863.766 279.672 860.233 280.568 858.105 282.36C855.976 284.067 854.912 286.2 854.912 288.76C854.912 292.685 858.488 295.843 865.64 298.232L881.476 303.48C889.053 305.955 895.055 309.581 899.482 314.36C903.995 319.139 906.251 325.411 906.251 333.176C906.251 343.501 902.931 351.48 896.29 357.112C889.734 362.744 880.369 365.56 868.194 365.56C857.892 365.56 849.335 363.256 842.524 358.648C835.713 354.04 830.903 347.64 828.093 339.448L832.691 336.376C836.437 344.824 841.29 350.797 847.25 354.296C853.209 357.795 860.191 359.544 868.194 359.544C878.325 359.544 886.158 357.283 891.692 352.76C897.311 348.237 900.121 341.709 900.121 333.176C900.121 326.861 898.205 321.827 894.374 318.072C890.628 314.317 885.69 311.416 879.56 309.368L863.724 304.12Z" fill="#01C198"/>
<path d="M766.757 317.56H816.819V323.704H766.757V317.56ZM766.757 331.512H816.819V337.656H766.757V331.512Z" fill="#01C198"/>
<path d="M764.292 345.592C761.141 351.736 756.246 356.6 749.605 360.184C743.049 363.768 735.514 365.56 727.001 365.56C717.465 365.56 709.079 363.427 701.842 359.16C694.69 354.808 689.071 348.707 684.984 340.856C680.983 332.92 678.982 323.576 678.982 312.824C678.982 302.243 680.983 293.027 684.984 285.176C689.071 277.325 694.69 271.267 701.842 267C709.079 262.648 717.422 260.472 726.873 260.472C732.918 260.472 738.409 261.325 743.347 263.032C748.285 264.739 752.5 267.085 755.991 270.072C759.481 273.059 762.035 276.472 763.653 280.312L759.439 284.152C755.778 277.581 751.138 273.016 745.518 270.456C739.899 267.896 733.684 266.616 726.873 266.616C718.529 266.616 711.207 268.536 704.907 272.376C698.692 276.216 693.839 281.592 690.348 288.504C686.857 295.416 685.112 303.523 685.112 312.824C685.112 322.296 686.857 330.531 690.348 337.528C693.839 344.525 698.734 349.944 705.035 353.784C711.335 357.624 718.657 359.544 727.001 359.544C733.641 359.544 739.729 358.221 745.263 355.576C750.882 352.931 755.905 348.237 760.333 341.496L764.292 345.592ZM754.841 335.992C751.521 341.112 747.562 344.909 742.964 347.384C738.367 349.773 733.727 350.968 729.044 350.968C723.425 350.968 718.231 349.56 713.463 346.744C708.781 343.928 705.035 339.704 702.225 334.072C699.415 328.44 698.011 321.357 698.011 312.824C698.011 304.632 699.415 297.72 702.225 292.088C705.035 286.456 708.781 282.232 713.463 279.416C718.146 276.515 723.297 275.064 728.916 275.064C733.429 275.064 737.941 276.259 742.453 278.648C746.966 280.952 750.669 284.621 753.564 289.656L749.094 293.752C748.073 291.448 746.497 289.357 744.369 287.48C742.326 285.517 739.942 283.981 737.217 282.872C734.493 281.763 731.726 281.208 728.916 281.208C724.319 281.208 720.147 282.445 716.401 284.92C712.655 287.395 709.675 290.979 707.461 295.672C705.247 300.365 704.141 306.083 704.141 312.824C704.141 319.821 705.247 325.709 707.461 330.488C709.675 335.267 712.655 338.851 716.401 341.24C720.147 343.629 724.361 344.824 729.044 344.824C731.854 344.824 734.621 344.269 737.345 343.16C740.155 341.965 742.709 340.387 745.008 338.424C747.306 336.376 749.052 334.029 750.244 331.384L754.841 335.992Z" fill="#01C198"/>
<path d="M602.427 263.16H671.389V269.304H608.557V356.856H673.944V363H602.427V263.16ZM619.54 276.472H671.389V282.616H625.67V302.328H664.876V308.472H619.54V276.472ZM619.54 315.256H664.876V321.4H625.67V343.544H673.944V349.688H619.54V315.256Z" fill="#01C198"/>
<path d="M518.801 263.16H595.554V269.304H518.801V263.16ZM562.861 276.472H595.554V282.616H568.991V363H562.861V276.472ZM545.237 282.616H518.801V276.472H551.367V363H545.237V282.616Z" fill="#01C198"/>
<path d="M485.475 269.304H464.786L433.498 363H427.112L460.316 263.16H489.945L523.149 363H516.508L485.475 269.304ZM471.172 279.416H478.579L493.904 326.136H455.847L471.172 279.416ZM485.475 319.992C485.049 318.627 484.368 316.579 483.432 313.848C482.495 311.117 481.474 308.088 480.367 304.76C479.26 301.347 478.238 297.976 477.302 294.648C476.365 291.235 475.684 288.205 475.258 285.56H474.492C474.066 288.12 473.385 291.107 472.449 294.52C471.597 297.848 470.618 301.219 469.511 304.632C468.405 307.96 467.383 311.032 466.446 313.848C465.51 316.579 464.829 318.627 464.403 319.992H485.475ZM491.861 339.576H458.145L450.227 363H443.842L453.803 333.432H496.33L505.909 363H499.523L491.861 339.576Z" fill="#01C198"/>
<path d="M362.424 263.16H428.96V269.304H368.554V363H362.424V263.16ZM379.792 276.472H428.96V282.616H385.922V305.912H423.468V312.056H379.792V276.472ZM379.792 318.712H423.468V324.856H385.922V363H379.792V318.712Z" fill="#01C198"/>
<path d="M553.025 574.28C548.427 574.28 544.404 573.213 540.956 571.08C537.508 568.947 534.826 565.917 532.911 561.992C530.995 558.024 530.037 553.331 530.037 547.912C530.037 542.621 530.995 538.013 532.911 534.088C534.826 530.163 537.508 527.133 540.956 525C544.404 522.824 548.427 521.736 553.025 521.736C557.622 521.736 561.624 522.824 565.029 525C568.477 527.176 571.138 530.227 573.011 534.152C574.884 538.077 575.821 542.664 575.821 547.912C575.821 553.331 574.884 558.024 573.011 561.992C571.138 565.917 568.477 568.947 565.029 571.08C561.624 573.213 557.622 574.28 553.025 574.28ZM553.025 571.272C557.069 571.272 560.56 570.312 563.497 568.392C566.434 566.472 568.712 563.763 570.329 560.264C571.947 556.765 572.756 552.648 572.756 547.912C572.756 543.304 571.947 539.272 570.329 535.816C568.712 532.36 566.434 529.672 563.497 527.752C560.56 525.789 557.069 524.808 553.025 524.808C548.981 524.808 545.469 525.768 542.489 527.688C539.509 529.608 537.189 532.296 535.529 535.752C533.911 539.208 533.102 543.261 533.102 547.912C533.102 552.648 533.911 556.765 535.529 560.264C537.189 563.763 539.509 566.472 542.489 568.392C545.469 570.312 548.981 571.272 553.025 571.272ZM553.025 567.368C550.47 567.368 548.108 566.621 545.937 565.128C543.808 563.635 542.106 561.459 540.828 558.6C539.551 555.699 538.913 552.136 538.913 547.912C538.913 543.645 539.594 540.104 540.956 537.288C542.318 534.429 544.064 532.296 546.192 530.888C548.363 529.437 550.641 528.712 553.025 528.712C555.579 528.712 557.899 529.437 559.985 530.888C562.113 532.296 563.795 534.429 565.029 537.288C566.306 540.104 566.945 543.645 566.945 547.912C566.945 552.136 566.285 555.699 564.965 558.6C563.646 561.459 561.922 563.635 559.793 565.128C557.707 566.621 555.451 567.368 553.025 567.368ZM553.025 564.296C555.025 564.296 556.835 563.656 558.452 562.376C560.113 561.096 561.432 559.24 562.411 556.808C563.39 554.333 563.88 551.368 563.88 547.912C563.88 542.707 562.858 538.717 560.815 535.944C558.772 533.171 556.175 531.784 553.025 531.784C551.066 531.784 549.236 532.403 547.533 533.64C545.873 534.877 544.532 536.691 543.51 539.08C542.489 541.469 541.978 544.413 541.978 547.912C541.978 551.368 542.446 554.333 543.383 556.808C544.362 559.24 545.681 561.096 547.342 562.376C549.044 563.656 550.939 564.296 553.025 564.296Z" fill="#01C198"/>
<path d="M521.221 523.08H524.286V573H521.221V523.08ZM512.281 523.08H515.346V573H512.281V523.08Z" fill="#01C198"/>
<path d="M492.404 550.088C494.958 549.149 496.938 548.125 498.343 547.016C499.79 545.907 500.791 544.605 501.344 543.112C501.94 541.619 502.238 539.869 502.238 537.864C502.238 535.475 501.663 533.405 500.514 531.656C499.407 529.907 497.875 528.563 495.916 527.624C493.958 526.643 491.702 526.152 489.148 526.152H471.141V573H468.076V523.08H489.148C492.34 523.08 495.15 523.699 497.577 524.936C500.003 526.173 501.897 527.901 503.26 530.12C504.622 532.296 505.303 534.877 505.303 537.864C505.303 541.747 504.558 544.797 503.068 547.016C501.621 549.192 499.535 550.771 496.81 551.752L508.623 573H504.984L492.404 550.088ZM476.505 529.736H486.977C489.871 529.736 492.191 530.525 493.937 532.104C495.682 533.64 496.555 535.752 496.555 538.44C496.555 541.384 495.682 543.667 493.937 545.288C492.234 546.909 489.935 547.72 487.041 547.72H476.505V529.736ZM487.041 544.648C488.999 544.648 490.553 544.115 491.702 543.048C492.894 541.939 493.49 540.403 493.49 538.44C493.49 536.648 492.873 535.261 491.638 534.28C490.446 533.299 488.892 532.808 486.977 532.808H479.57V544.648H487.041ZM486.019 553.8H479.506V573H476.441V550.728H487.998L498.215 573H494.831L486.019 553.8Z" fill="#01C198"/>
<path d="M430.949 514.184L441.293 506.312L443.464 508.552L432.29 516.936L430.949 514.184ZM433.12 518.536L445.955 511.048L448.253 513.352L434.461 521.288L433.12 518.536ZM439.633 574.28C435.036 574.28 431.013 573.213 427.565 571.08C424.116 568.947 421.435 565.917 419.519 561.992C417.603 558.024 416.646 553.331 416.646 547.912C416.646 542.621 417.603 538.013 419.519 534.088C421.435 530.163 424.116 527.133 427.565 525C431.013 522.824 435.036 521.736 439.633 521.736C444.231 521.736 448.232 522.824 451.638 525C455.086 527.176 457.746 530.227 459.62 534.152C461.493 538.077 462.429 542.664 462.429 547.912C462.429 553.331 461.493 558.024 459.62 561.992C457.746 565.917 455.086 568.947 451.638 571.08C448.232 573.213 444.231 574.28 439.633 574.28ZM439.633 571.272C443.677 571.272 447.168 570.312 450.105 568.392C453.043 566.472 455.32 563.763 456.938 560.264C458.555 556.765 459.364 552.648 459.364 547.912C459.364 543.304 458.555 539.272 456.938 535.816C455.32 532.36 453.043 529.672 450.105 527.752C447.168 525.789 443.677 524.808 439.633 524.808C435.589 524.808 432.077 525.768 429.097 527.688C426.117 529.608 423.797 532.296 422.137 535.752C420.519 539.208 419.71 543.261 419.71 547.912C419.71 552.648 420.519 556.765 422.137 560.264C423.797 563.763 426.117 566.472 429.097 568.392C432.077 570.312 435.589 571.272 439.633 571.272ZM439.633 567.368C437.079 567.368 434.716 566.621 432.545 565.128C430.417 563.635 428.714 561.459 427.437 558.6C426.16 555.699 425.521 552.136 425.521 547.912C425.521 543.645 426.202 540.104 427.565 537.288C428.927 534.429 430.672 532.296 432.801 530.888C434.972 529.437 437.249 528.712 439.633 528.712C442.187 528.712 444.507 529.437 446.593 530.888C448.722 532.296 450.403 534.429 451.638 537.288C452.915 540.104 453.553 543.645 453.553 547.912C453.553 552.136 452.894 555.699 451.574 558.6C450.254 561.459 448.53 563.635 446.402 565.128C444.316 566.621 442.06 567.368 439.633 567.368ZM439.633 564.296C441.634 564.296 443.443 563.656 445.061 562.376C446.721 561.096 448.041 559.24 449.02 556.808C449.999 554.333 450.488 551.368 450.488 547.912C450.488 542.707 449.467 538.717 447.423 535.944C445.38 533.171 442.783 531.784 439.633 531.784C437.675 531.784 435.844 532.403 434.142 533.64C432.481 534.877 431.14 536.691 430.119 539.08C429.097 541.469 428.586 544.413 428.586 547.912C428.586 551.368 429.055 554.333 429.991 556.808C430.97 559.24 432.29 561.096 433.95 562.376C435.653 563.656 437.547 564.296 439.633 564.296Z" fill="#01C198"/>
<path d="M377.387 523.08H415.763V526.152H377.387V523.08ZM399.417 529.736H415.763V532.808H402.482V573H399.417V529.736ZM390.605 532.808H377.387V529.736H393.67V573H390.605V532.808Z" fill="#01C198"/>
<path d="M370.614 523.08H373.679V573H370.614V523.08ZM361.674 523.08H364.739V573H361.674V523.08Z" fill="#01C198"/>
<path d="M313.229 523.08H332.513C337.068 523.08 341.112 524.104 344.645 526.152C348.178 528.157 350.945 531.037 352.946 534.792C354.947 538.504 355.947 542.92 355.947 548.04C355.947 553.203 354.947 557.661 352.946 561.416C350.988 565.128 348.264 567.987 344.773 569.992C341.282 571.997 337.238 573 332.64 573H313.229V523.08ZM332.64 569.928C336.642 569.928 340.154 569.053 343.176 567.304C346.241 565.512 348.625 562.973 350.328 559.688C352.031 556.403 352.882 552.52 352.882 548.04C352.882 543.56 352.01 539.677 350.264 536.392C348.519 533.107 346.114 530.589 343.049 528.84C340.026 527.048 336.514 526.152 332.513 526.152H316.294V569.928H332.64ZM321.913 529.928H331.299C334.322 529.928 337.025 530.589 339.409 531.912C341.793 533.235 343.687 535.24 345.092 537.928C346.497 540.616 347.199 543.987 347.199 548.04C347.199 551.965 346.518 555.272 345.156 557.96C343.794 560.648 341.921 562.696 339.537 564.104C337.195 565.469 334.492 566.152 331.427 566.152H321.913V529.928ZM331.427 563.08C335.173 563.08 338.217 561.779 340.558 559.176C342.942 556.573 344.134 552.861 344.134 548.04C344.134 544.712 343.581 541.939 342.474 539.72C341.367 537.459 339.835 535.773 337.877 534.664C335.961 533.555 333.769 533 331.299 533H324.978V563.08H331.427Z" fill="#01C198"/>
<path d="M296.844 523.08V554.696C296.844 557.683 296.312 560.115 295.248 561.992C294.226 563.869 292.821 565.256 291.033 566.152C289.288 567.048 287.287 567.496 285.031 567.496C281.625 567.496 278.858 566.493 276.73 564.488C274.601 562.44 273.537 559.176 273.537 554.696V523.08H276.602V554.696C276.602 558.067 277.368 560.541 278.901 562.12C280.433 563.656 282.477 564.424 285.031 564.424C287.543 564.424 289.628 563.656 291.289 562.12C292.949 560.541 293.779 558.067 293.779 554.696V523.08H296.844ZM305.209 523.08V555.72C305.209 559.432 304.336 562.675 302.591 565.448C300.846 568.221 298.462 570.397 295.439 571.976C292.417 573.512 288.947 574.28 285.031 574.28C281.029 574.28 277.496 573.512 274.431 571.976C271.409 570.397 269.046 568.221 267.343 565.448C265.641 562.632 264.789 559.389 264.789 555.72V523.08H267.854V555.72C267.854 558.792 268.578 561.501 270.025 563.848C271.473 566.195 273.495 568.029 276.091 569.352C278.688 570.632 281.668 571.272 285.031 571.272C288.309 571.272 291.225 570.632 293.779 569.352C296.376 568.072 298.419 566.259 299.909 563.912C301.399 561.565 302.144 558.835 302.144 555.72V523.08H305.209Z" fill="#01C198"/>
<path d="M243.529 526.152H233.184L217.54 573H214.347L230.949 523.08H245.763L262.366 573H259.045L243.529 526.152ZM236.377 531.208H240.08L247.743 554.568H228.714L236.377 531.208ZM243.529 551.496C243.316 550.813 242.975 549.789 242.507 548.424C242.039 547.059 241.528 545.544 240.974 543.88C240.421 542.173 239.91 540.488 239.442 538.824C238.974 537.117 238.633 535.603 238.42 534.28H238.037C237.824 535.56 237.484 537.053 237.015 538.76C236.59 540.424 236.1 542.109 235.547 543.816C234.993 545.48 234.482 547.016 234.014 548.424C233.546 549.789 233.205 550.813 232.993 551.496H243.529ZM246.721 561.288H229.864L225.905 573H222.712L227.693 558.216H248.956L253.745 573H250.553L246.721 561.288Z" fill="#01C198"/>
<path d="M1069.03 590.152H1058.68L1043.04 637H1039.85L1056.45 587.08H1071.26L1087.87 637H1084.55L1069.03 590.152ZM1061.88 595.208H1065.58L1073.24 618.568H1054.21L1061.88 595.208ZM1069.03 615.496C1068.82 614.813 1068.48 613.789 1068.01 612.424C1067.54 611.059 1067.03 609.544 1066.47 607.88C1065.92 606.173 1065.41 604.488 1064.94 602.824C1064.47 601.117 1064.13 599.603 1063.92 598.28H1063.54C1063.32 599.56 1062.98 601.053 1062.52 602.76C1062.09 604.424 1061.6 606.109 1061.05 607.816C1060.49 609.48 1059.98 611.016 1059.51 612.424C1059.05 613.789 1058.71 614.813 1058.49 615.496H1069.03ZM1072.22 625.288H1055.36L1051.4 637H1048.21L1053.19 622.216H1074.46L1079.25 637H1076.05L1072.22 625.288Z" fill="#01C198"/>
<path d="M1013.55 614.536C1009.76 613.171 1006.89 611.421 1004.93 609.288C1003.01 607.155 1002.06 604.232 1002.06 600.52C1002.06 597.832 1002.76 595.379 1004.16 593.16C1005.57 590.899 1007.59 589.107 1010.23 587.784C1012.87 586.419 1016.04 585.736 1019.74 585.736C1028.81 585.736 1034.77 589.043 1037.62 595.656L1035.2 597.384C1033.49 593.971 1031.34 591.688 1028.75 590.536C1026.19 589.384 1023.19 588.808 1019.74 588.808C1016.72 588.808 1014.1 589.341 1011.89 590.408C1009.72 591.432 1008.04 592.84 1006.85 594.632C1005.7 596.381 1005.12 598.344 1005.12 600.52C1005.12 603.507 1005.93 605.832 1007.55 607.496C1009.17 609.16 1011.51 610.547 1014.57 611.656L1021.79 614.216C1025.02 615.368 1027.22 616.712 1028.36 618.248C1029.51 619.741 1030.09 621.448 1030.09 623.368C1030.09 625.672 1029.3 627.592 1027.73 629.128C1026.15 630.664 1023.53 631.432 1019.87 631.432C1017.19 631.432 1014.61 630.6 1012.15 628.936C1009.68 627.229 1007.63 624.605 1006.02 621.064L1008.63 619.272C1009.74 622.131 1011.34 624.371 1013.42 625.992C1015.51 627.571 1017.66 628.36 1019.87 628.36C1022.34 628.36 1024.15 627.912 1025.3 627.016C1026.45 626.12 1027.02 624.904 1027.02 623.368C1027.02 622.003 1026.56 620.829 1025.62 619.848C1024.68 618.824 1023.06 617.907 1020.77 617.096L1013.55 614.536ZM1017.7 607.56C1014.93 606.621 1013 605.491 1011.89 604.168C1010.78 602.845 1010.23 601.416 1010.23 599.88C1010.23 598.557 1010.53 597.32 1011.12 596.168C1011.76 595.016 1012.81 594.077 1014.25 593.352C1015.74 592.627 1017.72 592.264 1020.19 592.264C1022.7 592.264 1024.96 592.904 1026.96 594.184C1028.96 595.464 1030.56 597.363 1031.75 599.88L1029.19 601.736C1028.43 599.688 1027.24 598.109 1025.62 597C1024 595.891 1022.19 595.336 1020.19 595.336C1017.72 595.336 1015.96 595.784 1014.89 596.68C1013.83 597.533 1013.29 598.6 1013.29 599.88C1013.29 601.843 1015.08 603.421 1018.66 604.616L1026.58 607.24C1030.37 608.477 1033.37 610.291 1035.58 612.68C1037.84 615.069 1038.96 618.205 1038.96 622.088C1038.96 627.251 1037.3 631.24 1033.98 634.056C1030.71 636.872 1026.02 638.28 1019.94 638.28C1014.78 638.28 1010.51 637.128 1007.1 634.824C1003.7 632.52 1001.29 629.32 999.885 625.224L1002.18 623.688C1004.06 627.912 1006.48 630.899 1009.46 632.648C1012.44 634.397 1015.93 635.272 1019.94 635.272C1025 635.272 1028.92 634.141 1031.69 631.88C1034.49 629.619 1035.9 626.355 1035.9 622.088C1035.9 618.931 1034.94 616.413 1033.03 614.536C1031.15 612.659 1028.68 611.208 1025.62 610.184L1017.7 607.56Z" fill="#01C198"/>
<path d="M983.329 614.088C985.883 613.149 987.863 612.125 989.268 611.016C990.715 609.907 991.716 608.605 992.269 607.112C992.865 605.619 993.163 603.869 993.163 601.864C993.163 599.475 992.588 597.405 991.439 595.656C990.332 593.907 988.799 592.563 986.841 591.624C984.883 590.643 982.627 590.152 980.073 590.152H962.066V637H959.001V587.08H980.073C983.265 587.08 986.075 587.699 988.502 588.936C990.928 590.173 992.822 591.901 994.185 594.12C995.547 596.296 996.228 598.877 996.228 601.864C996.228 605.747 995.483 608.797 993.993 611.016C992.546 613.192 990.46 614.771 987.735 615.752L999.548 637H995.909L983.329 614.088ZM967.43 593.736H977.902C980.796 593.736 983.116 594.525 984.862 596.104C986.607 597.64 987.48 599.752 987.48 602.44C987.48 605.384 986.607 607.667 984.862 609.288C983.159 610.909 980.86 611.72 977.966 611.72H967.43V593.736ZM977.966 608.648C979.924 608.648 981.477 608.115 982.627 607.048C983.819 605.939 984.415 604.403 984.415 602.44C984.415 600.648 983.798 599.261 982.563 598.28C981.371 597.299 979.817 596.808 977.902 596.808H970.495V608.648H977.966ZM976.944 617.8H970.431V637H967.366V614.728H978.923L989.14 637H985.756L976.944 617.8Z" fill="#01C198"/>
<path d="M918.169 587.08H952.65V590.152H921.234V633.928H953.927V637H918.169V587.08ZM926.725 593.736H952.65V596.808H929.79V606.664H949.394V609.736H926.725V593.736ZM926.725 613.128H949.394V616.2H929.79V627.272H953.927V630.344H926.725V613.128Z" fill="#01C198"/>
<path d="M878.876 587.08H882.068L890.242 615.56C890.625 616.84 890.944 618.12 891.2 619.4C891.498 620.68 891.753 621.811 891.966 622.792C892.179 623.731 892.307 624.392 892.349 624.776H892.604C892.69 624.392 892.817 623.709 892.988 622.728C893.2 621.747 893.435 620.616 893.69 619.336C893.988 618.056 894.307 616.797 894.648 615.56L902.693 587.08H905.886L894.328 627.848H890.625L878.876 587.08ZM869.361 587.08H872.618L886.921 633.928H897.394L911.697 587.08H914.953L899.692 637H884.623L869.361 587.08Z" fill="#01C198"/>
<path d="M840.458 613.128C839.777 611.677 839.117 610.12 838.479 608.456C837.883 606.749 837.351 605.128 836.883 603.592C836.457 602.013 836.116 600.712 835.861 599.688H835.669C836.138 602.163 836.499 605.021 836.755 608.264C837.01 611.464 837.138 614.899 837.138 618.568V637H834.073V596.232H835.797L853.74 633.928H863.318V587.08H866.383V637H851.824L840.458 613.128ZM838.223 590.152H829.156V637H826.091V587.08H840.139L851.569 610.696C852.42 612.445 853.208 614.237 853.932 616.072C854.655 617.864 855.251 619.485 855.72 620.936C856.23 622.344 856.528 623.347 856.614 623.944H856.933C856.379 620.787 855.975 617.693 855.72 614.664C855.464 611.635 855.336 608.883 855.336 606.408V587.08H858.401V627.4H856.294L838.223 590.152Z" fill="#01C198"/>
<path d="M804.831 590.152H794.486L778.842 637H775.649L792.251 587.08H807.065L823.668 637H820.347L804.831 590.152ZM797.679 595.208H801.382L809.045 618.568H790.016L797.679 595.208ZM804.831 615.496C804.618 614.813 804.277 613.789 803.809 612.424C803.341 611.059 802.83 609.544 802.276 607.88C801.723 606.173 801.212 604.488 800.744 602.824C800.276 601.117 799.935 599.603 799.722 598.28H799.339C799.126 599.56 798.786 601.053 798.317 602.76C797.892 604.424 797.402 606.109 796.849 607.816C796.295 609.48 795.784 611.016 795.316 612.424C794.848 613.789 794.507 614.813 794.294 615.496H804.831ZM808.023 625.288H791.166L787.207 637H784.014L788.995 622.216H810.258L815.047 637H811.855L808.023 625.288Z" fill="#01C198"/>
<path d="M742.827 614.088C745.382 613.149 747.361 612.125 748.766 611.016C750.213 609.907 751.214 608.605 751.767 607.112C752.363 605.619 752.661 603.869 752.661 601.864C752.661 599.475 752.086 597.405 750.937 595.656C749.83 593.907 748.298 592.563 746.339 591.624C744.381 590.643 742.125 590.152 739.571 590.152H721.564V637H718.499V587.08H739.571C742.763 587.08 745.573 587.699 748 588.936C750.426 590.173 752.32 591.901 753.683 594.12C755.045 596.296 755.726 598.877 755.726 601.864C755.726 605.747 754.981 608.797 753.491 611.016C752.044 613.192 749.958 614.771 747.233 615.752L759.046 637H755.407L742.827 614.088ZM726.928 593.736H737.4C740.294 593.736 742.615 594.525 744.36 596.104C746.105 597.64 746.978 599.752 746.978 602.44C746.978 605.384 746.105 607.667 744.36 609.288C742.657 610.909 740.358 611.72 737.464 611.72H726.928V593.736ZM737.464 608.648C739.422 608.648 740.976 608.115 742.125 607.048C743.317 605.939 743.913 604.403 743.913 602.44C743.913 600.648 743.296 599.261 742.061 598.28C740.869 597.299 739.315 596.808 737.4 596.808H729.993V608.648H737.464ZM736.442 617.8H729.929V637H726.864V614.728H738.421L748.638 637H745.254L736.442 617.8Z" fill="#01C198"/>
<path d="M707.128 587.08H710.193V637H707.128V587.08ZM698.189 587.08H701.254V637H698.189V587.08Z" fill="#01C198"/>
<path d="M686.81 590.152H675.444L666.632 627.912H663.503L654.18 590.152H643.517V637H640.452V587.08H656.607L663.822 616.264C664.078 617.203 664.269 618.312 664.397 619.592C664.567 620.872 664.695 622.003 664.78 622.984C664.865 623.965 664.929 624.52 664.972 624.648H665.163C665.206 624.52 665.27 623.965 665.355 622.984C665.44 621.96 665.546 620.829 665.674 619.592C665.802 618.312 665.972 617.224 666.185 616.328L673.017 587.08H689.875V637H686.81V590.152ZM679.211 617.16C679.211 616.264 679.233 615.091 679.275 613.64C679.318 612.147 679.382 610.589 679.467 608.968C679.552 607.304 679.616 605.704 679.658 604.168C679.743 602.589 679.807 601.245 679.85 600.136C679.935 598.984 679.978 598.237 679.978 597.896H679.594C679.594 598.28 679.509 598.984 679.339 600.008C679.211 600.989 679.041 602.141 678.828 603.464C678.658 604.744 678.445 606.024 678.19 607.304C677.977 608.541 677.764 609.565 677.551 610.376L670.846 637H659.097L651.945 610.44C651.775 609.843 651.584 608.989 651.371 607.88C651.158 606.728 650.945 605.512 650.732 604.232C650.519 602.909 650.328 601.693 650.158 600.584C649.987 599.432 649.86 598.536 649.774 597.896H649.391C649.434 598.28 649.476 599.027 649.519 600.136C649.604 601.245 649.668 602.568 649.711 604.104C649.796 605.597 649.881 607.176 649.966 608.84C650.051 610.504 650.115 612.083 650.158 613.576C650.2 615.069 650.221 616.328 650.221 617.352V637H647.156V594.568H650.86L661.46 633.928H668.42L678.317 594.568H682.276V637H679.211V617.16Z" fill="#01C198"/>
<path d="M629.081 587.08H632.146V637H629.081V587.08ZM620.141 587.08H623.206V637H620.141V587.08Z" fill="#01C198"/>
<path d="M571.696 587.08H590.98C595.535 587.08 599.579 588.104 603.112 590.152C606.646 592.157 609.413 595.037 611.413 598.792C613.414 602.504 614.414 606.92 614.414 612.04C614.414 617.203 613.414 621.661 611.413 625.416C609.455 629.128 606.731 631.987 603.24 633.992C599.749 635.997 595.705 637 591.108 637H571.696V587.08ZM591.108 633.928C595.109 633.928 598.621 633.053 601.644 631.304C604.709 629.512 607.093 626.973 608.795 623.688C610.498 620.403 611.35 616.52 611.35 612.04C611.35 607.56 610.477 603.677 608.732 600.392C606.986 597.107 604.581 594.589 601.516 592.84C598.493 591.048 594.982 590.152 590.98 590.152H574.761V633.928H591.108ZM580.38 593.928H589.767C592.789 593.928 595.492 594.589 597.876 595.912C600.26 597.235 602.154 599.24 603.559 601.928C604.964 604.616 605.667 607.987 605.667 612.04C605.667 615.965 604.985 619.272 603.623 621.96C602.261 624.648 600.388 626.696 598.004 628.104C595.663 629.469 592.959 630.152 589.894 630.152H580.38V593.928ZM589.894 627.08C593.641 627.08 596.684 625.779 599.026 623.176C601.41 620.573 602.601 616.861 602.601 612.04C602.601 608.712 602.048 605.939 600.941 603.72C599.834 601.459 598.302 599.773 596.344 598.664C594.428 597.555 592.236 597 589.767 597H583.445V627.08H589.894Z" fill="#01C198"/>
<path d="M550.435 590.152H540.091L524.447 637H521.254L537.856 587.08H552.67L569.272 637H565.952L550.435 590.152ZM543.284 595.208H546.987L554.65 618.568H535.621L543.284 595.208ZM550.435 615.496C550.222 614.813 549.882 613.789 549.414 612.424C548.945 611.059 548.435 609.544 547.881 607.88C547.328 606.173 546.817 604.488 546.349 602.824C545.88 601.117 545.54 599.603 545.327 598.28H544.944C544.731 599.56 544.391 601.053 543.922 602.76C543.497 604.424 543.007 606.109 542.453 607.816C541.9 609.48 541.389 611.016 540.921 612.424C540.453 613.789 540.112 614.813 539.899 615.496H550.435ZM553.628 625.288H536.771L532.812 637H529.619L534.599 622.216H555.863L560.652 637H557.459L553.628 625.288Z" fill="#01C198"/>
<path d="M498.344 587.08H501.409V626.568H522.544V629.64H498.344V587.08ZM489.595 587.08H492.661V633.928H522.544V637H489.595V587.08Z" fill="#01C198"/>
<path d="M459.797 590.152H452.773L445.494 628.168H442.493L434.83 587.08H437.959L442.748 613C443.089 614.664 443.344 616.627 443.515 618.888C443.727 621.107 443.834 623.091 443.834 624.84H444.089C444.174 623.688 444.259 622.429 444.345 621.064C444.43 619.656 444.536 618.269 444.664 616.904C444.834 615.496 445.026 614.259 445.239 613.192L450.283 587.08H462.288L467.715 612.936C467.971 614.216 468.205 615.965 468.418 618.184C468.631 620.403 468.801 622.515 468.929 624.52H469.184C469.269 622.515 469.397 620.445 469.567 618.312C469.78 616.179 469.993 614.451 470.206 613.128L474.612 587.08H477.677L470.78 627.848H467.715L459.797 590.152ZM457.754 611.976C457.584 610.995 457.414 609.821 457.243 608.456C457.073 607.091 456.924 605.725 456.796 604.36C456.669 602.995 456.562 601.8 456.477 600.776C456.392 599.709 456.349 599.027 456.349 598.728H456.222C456.222 599.027 456.179 599.709 456.094 600.776C456.009 601.8 455.902 602.995 455.775 604.36C455.647 605.725 455.498 607.091 455.328 608.456C455.157 609.821 454.987 610.995 454.817 611.976L450.283 637H437.065L426.402 587.08H429.53L439.556 633.928H447.729L454.689 595.4H457.69L465.033 633.928H472.76L482.53 587.08H485.658L475.25 637H462.479L457.754 611.976Z" fill="#01C198"/>
<path d="M400.767 625.16H404.024V637H400.767V625.16ZM393.041 625.16H396.297V637H393.041V625.16Z" fill="#01C198"/>
<path d="M355.077 587.08H388.345V590.152H358.142V637H355.077V587.08ZM363.761 593.736H388.345V596.808H366.826V608.456H385.6V611.528H363.761V593.736ZM363.761 614.856H385.6V617.928H366.826V637H363.761V614.856Z" fill="#01C198"/>
<path d="M326.634 638.28C322.037 638.28 318.014 637.213 314.566 635.08C311.118 632.947 308.436 629.917 306.52 625.992C304.605 622.024 303.647 617.331 303.647 611.912C303.647 606.621 304.605 602.013 306.52 598.088C308.436 594.163 311.118 591.133 314.566 589C318.014 586.824 322.037 585.736 326.634 585.736C331.232 585.736 335.233 586.824 338.639 589C342.087 591.176 344.748 594.227 346.621 598.152C348.494 602.077 349.43 606.664 349.43 611.912C349.43 617.331 348.494 622.024 346.621 625.992C344.748 629.917 342.087 632.947 338.639 635.08C335.233 637.213 331.232 638.28 326.634 638.28ZM326.634 635.272C330.678 635.272 334.169 634.312 337.107 632.392C340.044 630.472 342.321 627.763 343.939 624.264C345.557 620.765 346.365 616.648 346.365 611.912C346.365 607.304 345.557 603.272 343.939 599.816C342.321 596.36 340.044 593.672 337.107 591.752C334.169 589.789 330.678 588.808 326.634 588.808C322.59 588.808 319.078 589.768 316.098 591.688C313.119 593.608 310.798 596.296 309.138 599.752C307.521 603.208 306.712 607.261 306.712 611.912C306.712 616.648 307.521 620.765 309.138 624.264C310.798 627.763 313.119 630.472 316.098 632.392C319.078 634.312 322.59 635.272 326.634 635.272ZM326.634 631.368C324.08 631.368 321.718 630.621 319.547 629.128C317.418 627.635 315.715 625.459 314.438 622.6C313.161 619.699 312.523 616.136 312.523 611.912C312.523 607.645 313.204 604.104 314.566 601.288C315.928 598.429 317.673 596.296 319.802 594.888C321.973 593.437 324.25 592.712 326.634 592.712C329.189 592.712 331.509 593.437 333.595 594.888C335.723 596.296 337.405 598.429 338.639 601.288C339.916 604.104 340.555 607.645 340.555 611.912C340.555 616.136 339.895 619.699 338.575 622.6C337.256 625.459 335.531 627.635 333.403 629.128C331.317 630.621 329.061 631.368 326.634 631.368ZM326.634 628.296C328.635 628.296 330.444 627.656 332.062 626.376C333.722 625.096 335.042 623.24 336.021 620.808C337 618.333 337.49 615.368 337.49 611.912C337.49 606.707 336.468 602.717 334.425 599.944C332.381 597.171 329.785 595.784 326.634 595.784C324.676 595.784 322.846 596.403 321.143 597.64C319.483 598.877 318.142 600.691 317.12 603.08C316.098 605.469 315.588 608.413 315.588 611.912C315.588 615.368 316.056 618.333 316.992 620.808C317.971 623.24 319.291 625.096 320.951 626.376C322.654 627.656 324.548 628.296 326.634 628.296Z" fill="#01C198"/>
<path d="M286.58 614.088C289.134 613.149 291.113 612.125 292.518 611.016C293.966 609.907 294.966 608.605 295.519 607.112C296.115 605.619 296.413 603.869 296.413 601.864C296.413 599.475 295.839 597.405 294.689 595.656C293.582 593.907 292.05 592.563 290.092 591.624C288.133 590.643 285.877 590.152 283.323 590.152H265.316V637H262.251V587.08H283.323C286.516 587.08 289.325 587.699 291.752 588.936C294.178 590.173 296.073 591.901 297.435 594.12C298.797 596.296 299.478 598.877 299.478 601.864C299.478 605.747 298.733 608.797 297.243 611.016C295.796 613.192 293.71 614.771 290.986 615.752L302.799 637H299.159L286.58 614.088ZM270.68 593.736H281.152C284.047 593.736 286.367 594.525 288.112 596.104C289.858 597.64 290.73 599.752 290.73 602.44C290.73 605.384 289.858 607.667 288.112 609.288C286.409 610.909 284.111 611.72 281.216 611.72H270.68V593.736ZM281.216 608.648C283.174 608.648 284.728 608.115 285.877 607.048C287.069 605.939 287.665 604.403 287.665 602.44C287.665 600.648 287.048 599.261 285.813 598.28C284.621 597.299 283.068 596.808 281.152 596.808H273.745V608.648H281.216ZM280.194 617.8H273.681V637H270.616V614.728H282.174L292.39 637H289.006L280.194 617.8Z" fill="#01C198"/>
<path d="M228.541 617.928H240.418C244.675 617.928 248.017 616.669 250.444 614.152C252.87 611.635 254.083 608.243 254.083 603.976C254.083 601.288 253.53 598.92 252.423 596.872C251.316 594.781 249.762 593.139 247.762 591.944C245.761 590.749 243.377 590.152 240.61 590.152H223.05V637H219.985V587.08H240.61C243.973 587.08 246.889 587.805 249.358 589.256C251.827 590.707 253.743 592.712 255.105 595.272C256.467 597.789 257.148 600.691 257.148 603.976C257.148 609.224 255.658 613.384 252.678 616.456C249.699 619.485 245.612 621 240.418 621H231.606V637H228.541V617.928ZM228.35 593.8H237.992C241.014 593.8 243.526 594.632 245.527 596.296C247.57 597.96 248.592 600.541 248.592 604.04C248.592 606.344 248.123 608.264 247.187 609.8C246.25 611.293 244.973 612.424 243.356 613.192C241.781 613.917 240.014 614.28 238.056 614.28H228.35V593.8ZM238.056 611.208C240.142 611.208 241.908 610.632 243.356 609.48C244.803 608.285 245.527 606.472 245.527 604.04C245.527 601.565 244.803 599.752 243.356 598.6C241.908 597.448 240.12 596.872 237.992 596.872H231.415V611.208H238.056Z" fill="#01C198"/>
<path fill-rule="evenodd" clip-rule="evenodd" d="M1315.6 185H1251.75V419H1315.6V185ZM1248.75 182V422H1318.59V182H1248.75Z" fill="#01C198"/>
<path fill-rule="evenodd" clip-rule="evenodd" d="M1315.6 465H1251.75V699H1315.6V465ZM1248.75 462V702H1318.59V462H1248.75Z" fill="#01C198"/>
<path fill-rule="evenodd" clip-rule="evenodd" d="M1535.1 185H1471.24V419H1535.1V185ZM1468.25 182V422H1538.09V182H1468.25Z" fill="#01C198"/>
<path fill-rule="evenodd" clip-rule="evenodd" d="M1535.1 465H1471.24V699H1535.1V465ZM1468.25 462V702H1538.09V462H1468.25Z" fill="#01C198"/>
<path fill-rule="evenodd" clip-rule="evenodd" d="M1425.35 185H1361.5V419H1425.35V185ZM1358.5 182V422H1428.34V182H1358.5Z" fill="#01C198"/>
<path fill-rule="evenodd" clip-rule="evenodd" d="M1425.35 465H1361.5V699H1425.35V465ZM1358.5 462V702H1428.34V462H1358.5Z" fill="#01C198"/>
<path fill-rule="evenodd" clip-rule="evenodd" d="M1644.85 185H1580.99V419H1644.85V185ZM1578 182V422H1647.84V182H1578Z" fill="#01C198"/>
<path fill-rule="evenodd" clip-rule="evenodd" d="M1644.85 465H1580.99V699H1644.85V465ZM1578 462V702H1647.84V462H1578Z" fill="#01C198"/>
</svg>
